<?xml version="1.0" encoding="UTF-8" standalone="no"?>
<svg
   xmlns:dc="http://purl.org/dc/elements/1.1/"
   xmlns:cc="http://creativecommons.org/ns#"
   xmlns:rdf="http://www.w3.org/1999/02/22-rdf-syntax-ns#"
   xmlns:svg="http://www.w3.org/2000/svg"
   xmlns="http://www.w3.org/2000/svg"
   xmlns:sodipodi="http://sodipodi.sourceforge.net/DTD/sodipodi-0.dtd"
   xmlns:inkscape="http://www.inkscape.org/namespaces/inkscape"
   inkscape:version="1.0 (4035a4fb49, 2020-05-01)"
   sodipodi:docname="current_project.svg"
   version="1.1"
   viewBox="0 0 32 32"
   height="32"
   width="32"
   data-name="current project"
   id="current_project">
  <metadata
     id="metadata12">
    <rdf:RDF>
      <cc:Work
         rdf:about="">
        <dc:format>image/svg+xml</dc:format>
        <dc:type
           rdf:resource="http://purl.org/dc/dcmitype/StillImage" />
      </cc:Work>
    </rdf:RDF>
  </metadata>
  <sodipodi:namedview
     inkscape:current-layer="current_project"
     inkscape:window-maximized="0"
     inkscape:window-y="0"
     inkscape:window-x="0"
     inkscape:cy="13.153274"
     inkscape:cx="18.709224"
     inkscape:zoom="15.75"
     showgrid="false"
     id="namedview10"
     inkscape:window-height="1164"
     inkscape:window-width="2035"
     inkscape:pageshadow="2"
     inkscape:pageopacity="0"
     guidetolerance="10"
     gridtolerance="10"
     objecttolerance="10"
     borderopacity="1"
     bordercolor="#666666"
     pagecolor="#ffffff" />
  <defs
     id="defs4">
    <style
       id="style2">
      .cls-1 {
        fill: none;
        stroke: #b5b2b1;
        stroke-width: 2px;
      }

      .cls-1, .cls-2 {
        fill-rule: evenodd;
      }

      .cls-2 {
        fill: #b5b2b1;
      }
    </style>
  </defs>
  <path
     d="M 29,27 H 3 A 2,2 0 0 1 1,25 V 7 7 3 A 2,2 0 0 1 3,1 h 10 a 2,2 0 0 1 2,2 v 2 h 14 a 2,2 0 0 1 2,2 v 18 a 2,2 0 0 1 -2,2 z"
     class="cls-1"
     data-name="Rounded Rectangle 14"
     id="Rounded_Rectangle_14" />
  <path
     id="path7"
     d="m 13,13 h 6 v 2 h -6 z m 8,0 h 6 v 2 h -6 z m -8,4 h 6 v 2 h -6 z m 8,4 h 6 v 2 h -6 z"
     class="cls-2" />
</svg>
