<svg xmlns="http://www.w3.org/2000/svg" width="8" height="23" viewBox="0 0 8 23">
  <defs>
    <style>
      .cls-1 {
        fill: #8d8d8d;
        fill-rule: evenodd;
      }
    </style>
  </defs>
  <path id="drag_affordance" data-name="drag affordance" class="cls-1" d="M3.5,2A1.5,1.5,0,1,1,2,3.5,1.5,1.5,0,0,1,3.5,2Zm5,0A1.5,1.5,0,1,1,7,3.5,1.5,1.5,0,0,1,8.5,2Zm-5,5A1.5,1.5,0,1,1,2,8.5,1.5,1.5,0,0,1,3.5,7Zm5,0A1.5,1.5,0,1,1,7,8.5,1.5,1.5,0,0,1,8.5,7Zm-5,5A1.5,1.5,0,1,1,2,13.5,1.5,1.5,0,0,1,3.5,12Zm5,0A1.5,1.5,0,1,1,7,13.5,1.5,1.5,0,0,1,8.5,12Zm-5,5A1.5,1.5,0,1,1,2,18.5,1.5,1.5,0,0,1,3.5,17Zm5,0A1.5,1.5,0,1,1,7,18.5,1.5,1.5,0,0,1,8.5,17Zm-5,5A1.5,1.5,0,1,1,2,23.5,1.5,1.5,0,0,1,3.5,22Zm5,0A1.5,1.5,0,1,1,7,23.5,1.5,1.5,0,0,1,8.5,22Z" transform="translate(-2 -2)"/>
</svg>
