<svg xmlns="http://www.w3.org/2000/svg" width="32" height="32" viewBox="0 0 32 32">
  <defs>
    <style>
      .cls-1 {
        fill: #b5b2b1;
        fill-rule: evenodd;
      }
    </style>
  </defs>
  <path class="cls-1" d="M57,173c-0.366.025,0.383-4.028-2-6a44.368,44.368,0,0,0-4-3v13c0-.714-0.406,2.548-3.67,3.5-2.651.773-5.226,0.949-6.33-.964s-0.061-4.583,2.33-5.964a4.917,4.917,0,0,1,5.67.18V157a1,1,0,0,1,2,0v-1c0,6.063,7,7.358,7,12S57.366,172.975,57,173Z" transform="translate(-33.281 -152.531)"/>
</svg>
